name C:\Users\u0101727\Documents\MyRepositories\upper-imu-dc\OpenSim\subject0\MA\train_motion_filt.mot									
datacolumns 10									
datarows 97									
range 0 0.96									
endheader 									
time	clav_prot	clav_elev	scapula_abduction	scapula_elevation	scapula_upward_rot	scapula_winging	plane_elv	shoulder_elv	axial_rot
0	-23.8823027	-6.29492398	-15.17780348	-4.85934004	10.25200458	6.76884665	-33.75703837	12.17985066	49.42528041
0.01	-23.823549	-6.3295076	-15.2002902	-4.91266032	10.3105684	6.77281184	-32.66135649	12.30842431	48.52357704
0.02	-23.77121123	-6.3659407	-15.21786555	-4.96674092	10.37004355	6.77683598	-31.55046978	12.43876358	47.60950731
0.03	-23.72941865	-6.40457919	-15.22788856	-5.02114826	10.43006161	6.78086696	-30.43346486	12.56986989	46.69058805
0.04	-23.69981345	-6.44540672	-15.2297567	-5.07561939	10.49046972	6.78485245	-29.31583629	12.70120347	45.77136331
0.05	-23.68221205	-6.48814478	-15.2243053	-5.13002603	10.55129014	6.78873646	-28.20021885	12.83260301	44.85399398
0.06	-23.67538763	-6.53238702	-15.21311603	-5.18433859	10.61267888	6.79245725	-27.08712762	12.96420287	43.9388526
0.07	-23.67764086	-6.57769198	-15.19801908	-5.23859386	10.67488771	6.79594621	-25.97562259	13.0963576	43.02505634
0.08	-23.6871835	-6.62364113	-15.18076588	-5.29286816	10.73823159	6.79912771	-24.86385803	13.22957885	42.11090652
0.09	-23.70236979	-6.66986963	-15.16283977	-5.34725631	10.80306244	6.80191936	-23.74950616	13.36448562	41.19422761
0.1	-23.72181292	-6.71607778	-15.14536895	-5.40185638	10.86974915	6.80423278	-22.63006355	13.50176693	40.27261428
0.11	-23.74442021	-6.76202976	-15.12910808	-5.45675918	10.9386632	6.80597452	-21.50305826	13.6421548	39.34360238
0.12	-23.76937627	-6.80754504	-15.11446173	-5.51204172	11.01016852	6.80704708	-20.36617869	13.78640512	38.40478182
0.13	-23.79609799	-6.85248666	-15.10153105	-5.56776357	11.0846145	6.8073502	-19.21734442	13.93528425	37.45386795
0.14	-23.82417885	-6.89674889	-15.09017043	-5.62396537	11.16233109	6.80678219	-18.05473743	14.08955925	36.4887457
0.15	-23.85333387	-6.94024614	-15.08004532	-5.68066872	11.24362522	6.80524134	-16.87680869	14.24999024	35.50749766
0.16	-23.88335169	-6.98290381	-15.07068517	-5.73787693	11.32877815	6.80262733	-15.6822715	14.41732373	34.508424
0.17	-23.91405627	-7.02465165	-15.06152838	-5.79557639	11.41804337	6.7988427	-14.47008943	14.5922863	33.49005901
0.18	-23.94527915	-7.06541946	-15.05195821	-5.85373822	11.51164483	6.79379421	-13.23946333	14.77557839	32.45118608
0.19	-23.97684257	-7.10513481	-15.04133271	-5.91232004	11.60977511	6.78739432	-11.98981914	14.96786868	31.39085108
0.2	-24.00855319	-7.1437223	-15.02901178	-5.97126776	11.71259367	6.77956247	-10.72079691	15.16978897	30.30837267
0.21	-24.04020475	-7.1811036	-15.01438278	-6.03051732	11.82022548	6.77022617	-9.43224144	15.38192969	29.20334886
0.22	-24.07158636	-7.21719816	-14.99688351	-6.08999642	11.93276057	6.75932163	-8.12419454	15.60483608	28.07565891
0.23	-24.10249337	-7.251924	-14.97602099	-6.14962617	12.05025478	6.746794	-6.79688871	15.83900498	26.92545975
0.24	-24.13273885	-7.28519869	-14.95138592	-6.20932284	12.17273169	6.73259701	-5.45074127	16.0848826	25.75317602
0.25	-24.16216489	-7.31694009	-14.92266388	-6.26899943	12.30018573	6.71669241	-4.08634793	16.34286349	24.55948299
0.26	-24.19065326	-7.34706692	-14.8896443	-6.32856734	12.43258625	6.69904877	-2.70447523	16.61329067	23.34528225
0.27	-24.21813405	-7.3754988	-14.8522257	-6.38793784	12.56988279	6.67964009	-1.3060519	16.89645661	22.11167164
0.28	-24.24459046	-7.40215612	-14.81041473	-6.44702348	12.71201155	6.65844381	0.10784042	17.19260456	20.85991108
0.29	-24.27005892	-7.42695964	-14.76431785	-6.5057394	12.85890278	6.63543875	1.53597717	17.50193028	19.59138614
0.3	-24.29462508	-7.44982996	-14.71412701	-6.56400435	13.01048838	6.61060281	2.97700182	17.82458373	18.30757073
0.31	-24.31841707	-7.47068685	-14.66010175	-6.62174148	13.16670932	6.58391088	4.42943833	18.16067097	17.00999061
0.32	-24.34159704	-7.48944839	-14.60254982	-6.67887875	13.32752223	6.55533279	5.8917048	18.51025559	15.70018902
0.33	-24.36435198	-7.50603001	-14.54180761	-6.7353489	13.49290506	6.52483148	7.36212815	18.87335959	14.37969652
0.34	-24.38688464	-7.52034347	-14.4782219	-6.79108923	13.66286159	6.49236157	8.83895932	19.24996348	13.05000611
0.35	-24.40940573	-7.53229599	-14.41213485	-6.8460411	13.83742446	6.45786819	10.32038899	19.64000576	11.71255468
0.36	-24.43212855	-7.54178939	-14.34387401	-6.90014933	14.01665692	6.42128628	11.80456346	20.04338203	10.36871131
0.37	-24.4552658	-7.54871955	-14.27374661	-6.95336165	14.20065357	6.38254019	13.28960038	20.45994384	9.01977277
0.38	-24.47902716	-7.55297621	-14.20203534	-7.00562835	14.38954066	6.34154361	14.77360365	20.88949741	7.66696668
0.39	-24.50361585	-7.55444327	-14.12899225	-7.05690228	14.58347634	6.29819974	16.25467697	21.33180247	6.31146213
0.4	-24.52922278	-7.55299983	-14.05482809	-7.10713924	14.78265122	6.25240177	17.73093588	21.78657153	4.95438734
0.41	-24.55601724	-7.54852186	-13.9796955	-7.15629866	14.98728891	6.20403377	19.20051822	22.25346997	3.59685326
0.42	-24.58413353	-7.54088462	-13.90366515	-7.20434454	15.19764666	6.15297192	20.66159316	22.73211707	2.23998192
0.43	-24.61365354	-7.52996556	-13.82669491	-7.25124647	15.41401544	6.09908625	22.11236868	23.22208798	0.88493814
0.44	-24.64458633	-7.51564777	-13.74859449	-7.29698049	15.63671907	6.04224294	23.5510978	23.72291647	-0.4670373
0.45	-24.67684704	-7.49782349	-13.66899009	-7.34152953	15.8661113	5.98230724	24.97608377	24.23409862	-1.81459496
0.46	-24.71023858	-7.47639761	-13.58729541	-7.3848834	16.10257027	5.91914701	26.38568453	24.75509697	-3.15624696
0.47	-24.74443977	-7.45129082	-13.50269596	-7.427038	16.3464895	5.85263691	27.77831683	25.28534524	-4.4903422
0.48	-24.77900316	-7.42244202	-13.4141523	-7.46799387	16.59826529	5.78266303	29.15246012	25.82425325	-5.81504897
0.49	-24.81336452	-7.38981009	-13.3204254	-7.50775419	16.85828092	5.70912765	30.50666033	26.3712119	-7.12834657
0.5	-24.84686393	-7.35337475	-13.22012387	-7.54632234	17.12688842	5.63195401	31.83953367	26.92559809	-8.42802718
0.51	-24.87877683	-7.31313665	-13.11176868	-7.5836995	17.40438954	5.55109046	33.14977015	27.4867794	-9.71170854
0.52	-24.90835109	-7.2691169	-12.99386852	-7.61988238	17.69101747	5.46651399	34.43613692	28.05411855	-10.97685696
0.53	-24.93484617	-7.2213561	-12.86499709	-7.65486153	17.98692099	5.37823257	35.69748117	28.62697749	-12.22081969
0.54	-24.95756978	-7.16991312	-12.72386438	-7.68862025	18.29215238	5.28628639	36.93273248	29.20472114	-13.44086466
0.55	-24.97590887	-7.11486373	-12.56937561	-7.72113421	18.6066599	5.19074786	38.14090468	29.78672081	-14.63422564
0.56	-24.98935302	-7.05629914	-12.40067427	-7.75237181	18.93028495	5.0917205	39.32109728	30.37235715	-15.79815006
0.57	-24.99750924	-6.99432452	-12.2171681	-7.78229498	19.26276378	4.98933687	40.47249637	30.96102278	-16.92994728
0.58	-25.00010873	-6.92905743	-12.01853874	-7.81086037	19.60373297	4.88375578	41.59437538	31.55212449	-18.02703484
0.59	-24.9970065	-6.86062625	-11.80473738	-7.83802087	19.95273817	4.77515897	42.68609543	32.14508508	-19.0869809
0.6	-24.98817499	-6.78916859	-11.57596863	-7.86372713	20.30924495	4.66374752	43.74710547	32.73934478	-20.10754119
0.61	-24.97369312	-6.71482969	-11.33266548	-7.88792917	20.67265141	4.54973808	44.77694206	33.33436243	-21.08668957
0.62	-24.95373183	-6.63776099	-11.07545756	-7.91057797	21.04230159	4.43335925	45.77522866	33.92961633	-22.0226416
0.63	-24.9285373	-6.55811868	-10.80513496	-7.93162692	21.41749916	4.31484801	46.7416745	34.52460499	-22.91387116
0.64	-24.89841278	-6.47606254	-10.52260977	-7.95103318	21.79752077	4.19444653	47.67607282	35.11884775	-23.75912037
0.65	-24.86370027	-6.39175487	-10.2288775	-7.96875879	22.18162853	4.07239925	48.57829866	35.71188544	-24.55740349
0.66	-24.82476288	-6.3053595	-9.92498067	-7.98477146	22.56908082	3.94895044	49.44830617	36.30328104	-25.30800543
0.67	-24.78196936	-6.21704085	-9.61197688	-7.99904501	22.95914118	3.82434213	50.28612576	36.89262037	-26.01047572
0.68	-24.73568139	-6.12696282	-9.29091338	-8.01155923	23.35108477	3.6988125	51.09186112	37.47951276	-26.66461863
0.69	-24.68624467	-6.03528748	-8.96280937	-8.02229918	23.74420222	3.57259455	51.86568636	38.06359172	-27.27048034
0.7	-24.63398398	-5.94217337	-8.6286468	-8.03125398	24.13780114	3.44591517	52.60784339	38.64451532	-27.82833371
0.71	-24.57920206	-5.84777345	-8.28936913	-8.03841508	24.5312056	3.31899431	53.31863941	39.22196643	-28.33866153
0.72	-24.52218196	-5.75223262	-7.94588685	-8.04377407	24.92375415	3.19204421	53.99844475	39.79565258	-28.80213881
0.73	-24.46319168	-5.65568505	-7.59908754	-8.04732037	25.31479717	3.06526879	54.64769065	40.36530543	-29.21961502
0.74	-24.40249012	-5.55825127	-7.24984832	-8.04903889	25.70369411	2.93886279	55.26686697	40.93067992	-29.59209656
0.75	-24.3403332	-5.46003548	-6.89904799	-8.04890783	26.08981133	2.81301102	55.85651972	41.49155308	-29.92073031
0.76	-24.27697894	-5.36112306	-6.54757686	-8.0468969	26.47252087	2.6878875	56.41724824	42.0477226	-30.20678827
0.77	-24.21269069	-5.26157864	-6.19634244	-8.04296598	26.85120033	2.56365464	56.949702	42.59900542	-30.45165358
0.78	-24.14773775	-5.16144492	-5.84626954	-8.03706441	27.22523391	2.44046251	57.45457714	43.14523632	-30.6568078
0.79	-24.08239266	-5.06074235	-5.49829386	-8.0291309	27.59401453	2.31844827	57.93261265	43.68626684	-30.82381911
0.8	-24.01692486	-4.95946971	-5.15334808	-8.01909408	27.95694697	2.19773574	58.38458645	44.22196449	-30.95433107
0.81	-23.9515901	-4.85760588	-4.81233954	-8.00687377	28.31345218	2.07843517	58.81131113	44.75221238	-31.05005155
0.82	-23.8866153	-4.7551126	-4.47611894	-7.99238293	28.66297284	1.9606431	59.2136297	45.2769092	-31.11274124
0.83	-23.82217884	-4.65193845	-4.1454393	-7.97553047	29.00498061	1.8444423	59.59241104	45.79596945	-31.14420165
0.84	-23.75838659	-4.54802384	-3.82090563	-7.95622485	29.33898582	1.72990145	59.94854524	46.3093239	-31.14626214
0.85	-23.69524504	-4.44330708	-3.50291709	-7.93437881	29.66455006	1.61707472	60.28293881	46.81691983	-31.12076619
0.86	-23.63263436	-4.33773115	-3.1916059	-7.90991505	29.98130262	1.50600076	60.59650965	47.31872094	-31.06955705
0.87	-23.57028622	-4.23125059	-2.88678127	-7.88277309	30.28896138	1.39670107	60.89018194	47.81470674	-30.99446295
0.88	-23.50777434	-4.1238378	-2.58789195	-7.85291701	30.5873584	1.28917741	61.16488075	48.30487104	-30.89728256
0.89	-23.4445302	-4.01548729	-2.29402956	-7.82034382	30.87647017	1.18340834	61.42152664	48.78921966	-30.77977121
0.9	-23.37990345	-3.90621572	-2.00400766	-7.78509193	31.15645123	1.07934441	61.66103014	49.26776734	-30.64362849
0.91	-23.31329952	-3.79605439	-1.71657591	-7.74724848	31.42766893	0.9769024	61.88428644	49.74053393	-30.49048824
0.92	-23.24445397	-3.68502816	-1.43087607	-7.70695428	31.69073533	0.8759582	62.09217041	50.20754061	-30.32191139
0.93	-23.17395321	-3.57311043	-1.14733759	-7.66440389	31.94653024	0.77633852	62.28553207	50.66880671	-30.13938249
0.94	-23.10390759	-3.46016119	-0.8688538	-7.61983934	32.19620706	0.67781359	62.46519246	51.12434703	-29.94431026
0.95	-23.03826477	-3.34589126	-0.60134652	-7.57353795	32.44117543	0.58009711	62.63193958	51.57416791	-29.73803203
0.96	-22.98237973	-3.22988477	-0.35304498	-7.52579571	32.6830621	0.48285484	62.78652466	52.01826118	-29.52182139
